<mxfile host="app.diagrams.net" modified="2023-11-13T04:36:22.217Z" agent="Mozilla/5.0 (Windows NT 10.0; Win64; x64) AppleWebKit/537.36 (KHTML, like Gecko) Chrome/119.0.0.0 Safari/537.36" etag="wb0mOEOVeiwsFsX_jzdm" version="22.1.0" type="device">
  <diagram name="Page-1" id="b5b7bab2-c9e2-2cf4-8b2a-24fd1a2a6d21">
    <mxGraphModel dx="1195" dy="658" grid="1" gridSize="10" guides="1" tooltips="1" connect="1" arrows="1" fold="1" page="1" pageScale="1" pageWidth="827" pageHeight="1169" background="none" math="0" shadow="0">
      <root>
        <mxCell id="0" />
        <mxCell id="1" parent="0" />
        <mxCell id="6e0c8c40b5770093-72" value="" style="shape=folder;fontStyle=1;spacingTop=10;tabWidth=194;tabHeight=22;tabPosition=left;html=1;rounded=0;shadow=0;comic=0;labelBackgroundColor=none;strokeWidth=1;fillColor=none;fontFamily=Verdana;fontSize=10;align=center;" parent="1" vertex="1">
          <mxGeometry x="390" y="150" width="800" height="550" as="geometry" />
        </mxCell>
        <mxCell id="6e0c8c40b5770093-47" value="" style="shape=folder;fontStyle=1;spacingTop=10;tabWidth=160;tabHeight=30;tabPosition=left;html=1;rounded=0;shadow=0;comic=0;labelBackgroundColor=none;strokeWidth=1;fontFamily=Verdana;fontSize=10;align=center;" parent="1" vertex="1">
          <mxGeometry x="505.38" y="490" width="440.75" height="160" as="geometry" />
        </mxCell>
        <mxCell id="6e0c8c40b5770093-48" value="" style="triangle;whiteSpace=wrap;html=1;rounded=0;shadow=0;comic=0;labelBackgroundColor=none;strokeWidth=1;fontFamily=Verdana;fontSize=10;align=center;rotation=-90;" parent="1" vertex="1">
          <mxGeometry x="620.75" y="494.25" width="15" height="20" as="geometry" />
        </mxCell>
        <mxCell id="6e0c8c40b5770093-50" value="peripherals" style="shape=folder;fontStyle=1;spacingTop=10;tabWidth=50;tabHeight=17;tabPosition=left;html=1;rounded=0;shadow=0;comic=0;labelBackgroundColor=none;strokeWidth=1;fontFamily=Verdana;fontSize=10;align=center;" parent="1" vertex="1">
          <mxGeometry x="620.75" y="538.5" width="112" height="70" as="geometry" />
        </mxCell>
        <mxCell id="6e0c8c40b5770093-55" value="" style="group" parent="1" vertex="1" connectable="0">
          <mxGeometry x="620.75" y="409.99947954963227" width="130" height="70" as="geometry" />
        </mxCell>
        <mxCell id="6e0c8c40b5770093-56" value="dsPIC33C" style="shape=folder;fontStyle=1;spacingTop=10;tabWidth=50;tabHeight=17;tabPosition=left;html=1;rounded=0;shadow=0;comic=0;labelBackgroundColor=none;strokeWidth=1;fontFamily=Verdana;fontSize=10;align=center;" parent="6e0c8c40b5770093-55" vertex="1">
          <mxGeometry x="40" y="-20" width="130" height="70" as="geometry" />
        </mxCell>
        <mxCell id="6e0c8c40b5770093-73" value="&amp;lt;&amp;lt;model&amp;gt;&amp;gt; Udip poject" style="text;html=1;align=left;verticalAlign=top;spacingTop=-4;fontSize=10;fontFamily=Verdana" parent="1" vertex="1">
          <mxGeometry x="400" y="150" width="130" height="20" as="geometry" />
        </mxCell>
        <mxCell id="XVipIawgaSEmqNxyOmse-1" value="" style="group" vertex="1" connectable="0" parent="1">
          <mxGeometry x="457.5" y="190" width="610" height="150" as="geometry" />
        </mxCell>
        <mxCell id="XVipIawgaSEmqNxyOmse-2" value="" style="shape=folder;fontStyle=1;spacingTop=10;tabWidth=149;tabHeight=30;tabPosition=left;html=1;rounded=0;shadow=0;comic=0;labelBackgroundColor=none;strokeWidth=1;fontFamily=Verdana;fontSize=10;align=center;" vertex="1" parent="XVipIawgaSEmqNxyOmse-1">
          <mxGeometry x="-36.52" y="10" width="646.52" height="130" as="geometry" />
        </mxCell>
        <mxCell id="XVipIawgaSEmqNxyOmse-8" value="Receive_Data" style="shape=folder;fontStyle=1;spacingTop=10;tabWidth=50;tabHeight=17;tabPosition=left;html=1;rounded=0;shadow=0;comic=0;labelBackgroundColor=none;strokeColor=#000000;strokeWidth=1;fillColor=#ffffff;fontFamily=Verdana;fontSize=10;fontColor=#000000;align=center;" vertex="1" parent="XVipIawgaSEmqNxyOmse-1">
          <mxGeometry x="-17.5" y="47.96" width="150" height="75" as="geometry" />
        </mxCell>
        <mxCell id="XVipIawgaSEmqNxyOmse-10" value="communication" style="text;strokeColor=none;fillColor=none;align=left;verticalAlign=middle;spacingLeft=4;spacingRight=4;overflow=hidden;points=[[0,0.5],[1,0.5]];portConstraint=eastwest;rotatable=0;whiteSpace=wrap;html=1;" vertex="1" parent="XVipIawgaSEmqNxyOmse-1">
          <mxGeometry x="-36.519999999999996" y="10" width="91.91" height="30" as="geometry" />
        </mxCell>
        <mxCell id="XVipIawgaSEmqNxyOmse-28" value="Transmit_Data" style="shape=folder;fontStyle=1;spacingTop=10;tabWidth=50;tabHeight=17;tabPosition=left;html=1;rounded=0;shadow=0;comic=0;labelBackgroundColor=none;strokeColor=#000000;strokeWidth=1;fillColor=#ffffff;fontFamily=Verdana;fontSize=10;fontColor=#000000;align=center;" vertex="1" parent="XVipIawgaSEmqNxyOmse-1">
          <mxGeometry x="172.5" y="45.919999999999995" width="150" height="79.09" as="geometry" />
        </mxCell>
        <mxCell id="XVipIawgaSEmqNxyOmse-86" value="Message" style="shape=folder;fontStyle=1;spacingTop=10;tabWidth=50;tabHeight=17;tabPosition=left;html=1;rounded=0;shadow=0;comic=0;labelBackgroundColor=none;strokeColor=#000000;strokeWidth=1;fillColor=#ffffff;fontFamily=Verdana;fontSize=10;fontColor=#000000;align=center;" vertex="1" parent="XVipIawgaSEmqNxyOmse-1">
          <mxGeometry x="362.5" y="50" width="150" height="76.13" as="geometry" />
        </mxCell>
        <mxCell id="XVipIawgaSEmqNxyOmse-88" value="" style="endArrow=classic;html=1;rounded=0;entryX=0;entryY=0;entryDx=0;entryDy=48.045;entryPerimeter=0;exitX=0;exitY=0;exitDx=150;exitDy=46;exitPerimeter=0;dashed=1;" edge="1" parent="XVipIawgaSEmqNxyOmse-1" source="XVipIawgaSEmqNxyOmse-8" target="XVipIawgaSEmqNxyOmse-28">
          <mxGeometry width="50" height="50" relative="1" as="geometry">
            <mxPoint x="302.5" y="240" as="sourcePoint" />
            <mxPoint x="352.5" y="190" as="targetPoint" />
          </mxGeometry>
        </mxCell>
        <mxCell id="XVipIawgaSEmqNxyOmse-92" value="" style="triangle;whiteSpace=wrap;html=1;rounded=0;shadow=0;comic=0;labelBackgroundColor=none;strokeWidth=1;fontFamily=Verdana;fontSize=10;align=center;rotation=-90;" vertex="1" parent="XVipIawgaSEmqNxyOmse-1">
          <mxGeometry x="72.5" y="15" width="15" height="20" as="geometry" />
        </mxCell>
        <mxCell id="XVipIawgaSEmqNxyOmse-66" value="" style="shape=folder;fontStyle=1;spacingTop=10;tabWidth=120;tabHeight=30;tabPosition=left;html=1;rounded=0;shadow=0;comic=0;labelBackgroundColor=none;strokeColor=#000000;strokeWidth=1;fillColor=#ffffff;fontFamily=Verdana;fontSize=10;fontColor=#000000;align=center;" vertex="1" parent="1">
          <mxGeometry x="960" y="360" width="160" height="130" as="geometry" />
        </mxCell>
        <mxCell id="XVipIawgaSEmqNxyOmse-67" value="Setup" style="text;html=1;strokeColor=none;fillColor=none;align=center;verticalAlign=middle;whiteSpace=wrap;rounded=0;" vertex="1" parent="1">
          <mxGeometry x="960" y="360" width="60" height="30" as="geometry" />
        </mxCell>
        <mxCell id="XVipIawgaSEmqNxyOmse-69" value="initiate" style="shape=folder;fontStyle=1;spacingTop=10;tabWidth=50;tabHeight=17;tabPosition=left;html=1;rounded=0;shadow=0;comic=0;labelBackgroundColor=none;strokeWidth=1;fontFamily=Verdana;fontSize=10;align=center;" vertex="1" parent="1">
          <mxGeometry x="980" y="395" width="120" height="80" as="geometry" />
        </mxCell>
        <mxCell id="XVipIawgaSEmqNxyOmse-70" value="Application Layer" style="text;html=1;strokeColor=none;fillColor=none;align=center;verticalAlign=middle;whiteSpace=wrap;rounded=0;" vertex="1" parent="1">
          <mxGeometry x="510.75" y="470" width="100" height="68.5" as="geometry" />
        </mxCell>
        <mxCell id="XVipIawgaSEmqNxyOmse-87" value="" style="endArrow=classic;html=1;rounded=0;dashed=1;entryX=0;entryY=0;entryDx=90;entryDy=17;entryPerimeter=0;" edge="1" parent="1" target="6e0c8c40b5770093-56">
          <mxGeometry width="50" height="50" relative="1" as="geometry">
            <mxPoint x="750" y="330" as="sourcePoint" />
            <mxPoint x="898" y="390" as="targetPoint" />
          </mxGeometry>
        </mxCell>
        <mxCell id="XVipIawgaSEmqNxyOmse-89" value="" style="endArrow=classic;html=1;rounded=0;entryX=0;entryY=0;entryDx=0;entryDy=46.565;entryPerimeter=0;dashed=1;" edge="1" parent="1" target="XVipIawgaSEmqNxyOmse-86">
          <mxGeometry width="50" height="50" relative="1" as="geometry">
            <mxPoint x="780" y="287" as="sourcePoint" />
            <mxPoint x="640.5" y="294" as="targetPoint" />
          </mxGeometry>
        </mxCell>
        <mxCell id="XVipIawgaSEmqNxyOmse-90" value="" style="endArrow=classic;html=1;rounded=0;exitX=0.987;exitY=0.552;exitDx=0;exitDy=0;exitPerimeter=0;dashed=1;entryX=0.005;entryY=0.541;entryDx=0;entryDy=0;entryPerimeter=0;" edge="1" parent="1" source="6e0c8c40b5770093-56" target="XVipIawgaSEmqNxyOmse-66">
          <mxGeometry width="50" height="50" relative="1" as="geometry">
            <mxPoint x="908" y="341" as="sourcePoint" />
            <mxPoint x="908" y="400" as="targetPoint" />
          </mxGeometry>
        </mxCell>
        <mxCell id="XVipIawgaSEmqNxyOmse-91" value="" style="endArrow=classic;html=1;rounded=0;dashed=1;entryX=0.518;entryY=0.19;entryDx=0;entryDy=0;entryPerimeter=0;" edge="1" parent="1" target="6e0c8c40b5770093-47">
          <mxGeometry width="50" height="50" relative="1" as="geometry">
            <mxPoint x="734" y="460" as="sourcePoint" />
            <mxPoint x="1160" y="417" as="targetPoint" />
          </mxGeometry>
        </mxCell>
        <mxCell id="XVipIawgaSEmqNxyOmse-93" value="" style="triangle;whiteSpace=wrap;html=1;rounded=0;shadow=0;comic=0;labelBackgroundColor=none;strokeWidth=1;fontFamily=Verdana;fontSize=10;align=center;rotation=-90;" vertex="1" parent="1">
          <mxGeometry x="1020" y="365" width="15" height="20" as="geometry" />
        </mxCell>
      </root>
    </mxGraphModel>
  </diagram>
</mxfile>
